<svg xmlns="http://www.w3.org/2000/svg" width="1200" height="1000"><rect width="1200" height="1000" x="0" y="0" fill="#FFFFFF" id="background"/><g transform="translate(500,500)" id="viz"><g id="links"><path d="M0,0C-19.601270649304993,95.50937225703399,55.63494915013519,-80.06873567792783,111.26989830027038,-160.13747135585567" fill="none" stroke="#ccc"/><path d="M0,0C-19.601270649304993,95.50937225703399,94.4455954872519,24.213209061551193,188.8911909745038,48.42641812310239" fill="none" stroke="#ccc"/><path d="M0,0C-19.601270649304993,95.50937225703399,29.533189786199124,92.91953885514253,59.06637957239825,185.83907771028507" fill="none" stroke="#ccc"/><path d="M0,0C-19.601270649304993,95.50937225703399,-46.90935278924156,85.47375398854595,-93.81870557848312,170.9475079770919" fill="none" stroke="#ccc"/><path d="M0,0C-19.601270649304993,95.50937225703399,-77.2744511382268,59.45510239908598,-154.5489022764536,118.91020479817196" fill="none" stroke="#ccc"/><path d="M0,0C-19.601270649304993,95.50937225703399,-94.44559548725185,24.213209061551353,-188.8911909745037,48.42641812310271" fill="none" stroke="#ccc"/><path d="M0,0C-19.601270649304993,95.50937225703399,-96.3480799974146,-14.94314159779653,-192.6961599948292,-29.88628319559306" fill="none" stroke="#ccc"/><path d="M0,0C-19.601270649304993,95.50937225703399,-82.67433724130329,-51.683691448185584,-165.34867448260658,-103.36738289637117" fill="none" stroke="#ccc"/><path d="M0,0C-19.601270649304993,95.50937225703399,-55.6349491501353,-80.06873567792773,-111.2698983002706,-160.13747135585547" fill="none" stroke="#ccc"/><path d="M0,0C-19.601270649304993,95.50937225703399,-19.601270649304976,-95.50937225703399,-39.20254129860995,-191.01874451406798" fill="none" stroke="#ccc"/><path d="M111.26989830027038,-160.13747135585567C166.90484745040558,-240.20620703378347,58.80381194791508,-286.52811677110196,78.4050825972201,-382.03748902813595" fill="none" stroke="#ccc"/><path d="M111.26989830027038,-160.13747135585567C166.90484745040558,-240.20620703378347,166.90484745040558,-240.20620703378347,222.53979660054077,-320.27494271171133" fill="none" stroke="#ccc"/><path d="M111.26989830027038,-160.13747135585567C166.90484745040558,-240.20620703378347,248.02301172390978,-155.05107434455695,330.69734896521305,-206.7347657927426" fill="none" stroke="#ccc"/><path d="M188.8911909745038,48.42641812310239C283.33678646175565,72.63962718465358,289.0442399922437,-44.82942479339001,385.39231998965835,-59.772566391186686" fill="none" stroke="#ccc"/><path d="M188.8911909745038,48.42641812310239C283.33678646175565,72.63962718465358,283.33678646175565,72.63962718465358,377.7823819490076,96.85283624620477" fill="none" stroke="#ccc"/><path d="M188.8911909745038,48.42641812310239C283.33678646175565,72.63962718465358,231.82335341468067,178.3653071972576,309.0978045529075,237.82040959634347" fill="none" stroke="#ccc"/><path d="M59.06637957239825,185.83907771028507C88.59956935859736,278.75861656542764,142.83192144418433,255.25534708711268,190.44256192557913,340.34046278281687" fill="none" stroke="#ccc"/><path d="M59.06637957239825,185.83907771028507C88.59956935859736,278.75861656542764,30.7493965390606,290.87922684936376,40.99919538541413,387.838969132485" fill="none" stroke="#ccc"/><path d="M-93.81870557848312,170.9475079770919C-140.72805836772466,256.4212619656378,-86.30426623208017,279.4777694739641,-115.0723549761069,372.6370259652855" fill="none" stroke="#ccc"/><path d="M-93.81870557848312,170.9475079770919C-140.72805836772466,256.4212619656378,-189.40544686848637,222.89420516592392,-252.5405958246485,297.19227355456525" fill="none" stroke="#ccc"/><path d="M-192.6961599948292,-29.88628319559306C-289.04423999224383,-44.82942479338959,-289.04423999224383,-44.82942479338959,-385.3923199896584,-59.77256639118612" fill="none" stroke="#ccc"/><path d="M-111.2698983002706,-160.13747135585547C-166.9048474504059,-240.20620703378322,-166.9048474504059,-240.20620703378322,-222.5397966005412,-320.27494271171093" fill="none" stroke="#ccc"/><path d="M-39.20254129860995,-191.01874451406798C-58.80381194791492,-286.52811677110196,-58.80381194791492,-286.52811677110196,-78.4050825972199,-382.03748902813595" fill="none" stroke="#ccc"/></g><g><circle transform="&#10;&#9;        rotate(101.59770438750706)&#10;&#9;        translate(0,0)&#10;&#9;      " fill="#ccc" r="5"/><circle transform="&#10;&#9;        rotate(-55.20688683747878)&#10;&#9;        translate(195,0)&#10;&#9;      " fill="#ccc" r="5"/><circle transform="&#10;&#9;        rotate(14.379339487563655)&#10;&#9;        translate(195,0)&#10;&#9;      " fill="#ccc" r="5"/><circle transform="&#10;&#9;        rotate(72.36786142509905)&#10;&#9;        translate(195,0)&#10;&#9;      " fill="#ccc" r="5"/><circle transform="&#10;&#9;        rotate(118.75867897512731)&#10;&#9;        translate(195,0)&#10;&#9;      " fill="#ccc" r="5"/><circle transform="&#10;&#9;        rotate(142.4252517374221)&#10;&#9;        translate(195,0)&#10;&#9;      " fill="#1f77b4" r="10"/><circle transform="&#10;&#9;        rotate(165.62066051243625)&#10;&#9;        translate(195,0)&#10;&#9;      " fill="#1f77b4" r="10"/><circle transform="&#10;&#9;        rotate(188.81606928745043)&#10;&#9;        translate(195,0)&#10;&#9;      " fill="#ff7f0e" r="5"/><circle transform="&#10;&#9;        rotate(212.01147806246462)&#10;&#9;        translate(195,0)&#10;&#9;      " fill="#1f77b4" r="10"/><circle transform="&#10;&#9;        rotate(235.2068868374787)&#10;&#9;        translate(195,0)&#10;&#9;      " fill="#d62728" r="5"/><circle transform="&#10;&#9;        rotate(258.40229561249294)&#10;&#9;        translate(195,0)&#10;&#9;      " fill="#9467bd" r="5"/><circle transform="&#10;&#9;        rotate(-78.40229561249292)&#10;&#9;        translate(390,0)&#10;&#9;      " fill="#cccccc" r="10"/><circle transform="&#10;&#9;        rotate(-55.20688683747878)&#10;&#9;        translate(390,0)&#10;&#9;      " fill="#e377c2" r="10"/><circle transform="&#10;&#9;        rotate(-32.01147806246465)&#10;&#9;        translate(390,0)&#10;&#9;      " fill="#7f7f7f" r="10"/><circle transform="&#10;&#9;        rotate(-8.816069287450475)&#10;&#9;        translate(390,0)&#10;&#9;      " fill="#e377c2" r="10"/><circle transform="&#10;&#9;        rotate(14.379339487563655)&#10;&#9;        translate(390,0)&#10;&#9;      " fill="#cccccc" r="10"/><circle transform="&#10;&#9;        rotate(37.57474826257783)&#10;&#9;        translate(390,0)&#10;&#9;      " fill="#8c564b" r="10"/><circle transform="&#10;&#9;        rotate(60.77015703759196)&#10;&#9;        translate(390,0)&#10;&#9;      " fill="#2ca02c" r="10"/><circle transform="&#10;&#9;        rotate(83.96556581260609)&#10;&#9;        translate(390,0)&#10;&#9;      " fill="#17becf" r="10"/><circle transform="&#10;&#9;        rotate(107.16097458762025)&#10;&#9;        translate(390,0)&#10;&#9;      " fill="#bcbd22" r="10"/><circle transform="&#10;&#9;        rotate(130.35638336263435)&#10;&#9;        translate(390,0)&#10;&#9;      " fill="#cccccc" r="10"/><circle transform="&#10;&#9;        rotate(188.81606928745043)&#10;&#9;        translate(390,0)&#10;&#9;      " fill="#ff7f0e" r="10"/><circle transform="&#10;&#9;        rotate(235.2068868374787)&#10;&#9;        translate(390,0)&#10;&#9;      " fill="#d62728" r="10"/><circle transform="&#10;&#9;        rotate(258.40229561249294)&#10;&#9;        translate(390,0)&#10;&#9;      " fill="#9467bd" r="10"/></g><g id="labels"><g transform="&#10;&#9;        rotate(101.59770438750706)&#10;&#9;        translate(0,0)&#10;&#9;        rotate(180)&#10;&#9;      "><text x="0" y="0" text-anchor="middle" dominant-baseline="text-before-edge" transform="translate(0,0)"><tspan x="6" y="0" dy="0" text-anchor="start" style="font-family: Arial, sans-serif; font-size: 10px; fill: black; font-weight: normal;"/></text></g><g transform="&#10;&#9;        rotate(-55.20688683747878)&#10;&#9;        translate(195,0)&#10;&#9;        rotate(0)&#10;&#9;      "><text x="0" y="0" text-anchor="middle" dominant-baseline="text-before-edge" transform="translate(0,-5.6666669845581055)"><tspan x="-6" y="0" dy="0" text-anchor="end" style="font-family: Arial, sans-serif; font-size: 10px; fill: black; font-weight: normal;">Nekfeu</tspan></text></g><g transform="&#10;&#9;        rotate(14.379339487563655)&#10;&#9;        translate(195,0)&#10;&#9;        rotate(0)&#10;&#9;      "><text x="0" y="0" text-anchor="middle" dominant-baseline="text-before-edge" transform="translate(0,-5.6666669845581055)"><tspan x="-6" y="0" dy="0" text-anchor="end" style="font-family: Arial, sans-serif; font-size: 10px; fill: black; font-weight: normal;">MC Solaar</tspan></text></g><g transform="&#10;&#9;        rotate(72.36786142509905)&#10;&#9;        translate(195,0)&#10;&#9;        rotate(0)&#10;&#9;      "><text x="0" y="0" text-anchor="middle" dominant-baseline="text-before-edge" transform="translate(0,-5.6666669845581055)"><tspan x="-6" y="0" dy="0" text-anchor="end" style="font-family: Arial, sans-serif; font-size: 10px; fill: black; font-weight: normal;">Vin's</tspan></text></g><g transform="&#10;&#9;        rotate(118.75867897512731)&#10;&#9;        translate(195,0)&#10;&#9;        rotate(180)&#10;&#9;      "><text x="0" y="0" text-anchor="middle" dominant-baseline="text-before-edge" transform="translate(0,-5.6666669845581055)"><tspan x="6" y="0" dy="0" text-anchor="start" style="font-family: Arial, sans-serif; font-size: 10px; fill: black; font-weight: normal;">Lefa</tspan></text></g><g transform="&#10;&#9;        rotate(142.4252517374221)&#10;&#9;        translate(195,0)&#10;&#9;        rotate(180)&#10;&#9;      "><text x="0" y="0" text-anchor="middle" dominant-baseline="text-before-edge" transform="translate(0,0)"><tspan x="-15" y="0" dy="0" text-anchor="end" style="font-family: Arial, sans-serif; font-size: 10px; fill: black; font-weight: bold;"/></text></g><g transform="&#10;&#9;        rotate(165.62066051243625)&#10;&#9;        translate(195,0)&#10;&#9;        rotate(180)&#10;&#9;      "><text x="0" y="0" text-anchor="middle" dominant-baseline="text-before-edge" transform="translate(0,0)"><tspan x="-15" y="0" dy="0" text-anchor="end" style="font-family: Arial, sans-serif; font-size: 10px; fill: black; font-weight: bold;"/></text></g><g transform="&#10;&#9;        rotate(188.81606928745043)&#10;&#9;        translate(195,0)&#10;&#9;        rotate(180)&#10;&#9;      "><text x="0" y="0" text-anchor="middle" dominant-baseline="text-before-edge" transform="translate(0,-5.6666669845581055)"><tspan x="6" y="0" dy="0" text-anchor="start" style="font-family: Arial, sans-serif; font-size: 10px; fill: black; font-weight: normal;">Keny Arkana</tspan></text></g><g transform="&#10;&#9;        rotate(212.01147806246462)&#10;&#9;        translate(195,0)&#10;&#9;        rotate(180)&#10;&#9;      "><text x="0" y="0" text-anchor="middle" dominant-baseline="text-before-edge" transform="translate(0,0)"><tspan x="-15" y="0" dy="0" text-anchor="end" style="font-family: Arial, sans-serif; font-size: 10px; fill: black; font-weight: bold;"/></text></g><g transform="&#10;&#9;        rotate(235.2068868374787)&#10;&#9;        translate(195,0)&#10;&#9;        rotate(180)&#10;&#9;      "><text x="0" y="0" text-anchor="middle" dominant-baseline="text-before-edge" transform="translate(0,-5.6666669845581055)"><tspan x="6" y="0" dy="0" text-anchor="start" style="font-family: Arial, sans-serif; font-size: 10px; fill: black; font-weight: normal;">Médine</tspan></text></g><g transform="&#10;&#9;        rotate(258.40229561249294)&#10;&#9;        translate(195,0)&#10;&#9;        rotate(180)&#10;&#9;      "><text x="0" y="0" text-anchor="middle" dominant-baseline="text-before-edge" transform="translate(0,-5.6666669845581055)"><tspan x="6" y="0" dy="0" text-anchor="start" style="font-family: Arial, sans-serif; font-size: 10px; fill: black; font-weight: normal;">Alonzo</tspan></text></g><g transform="&#10;&#9;        rotate(-78.40229561249292)&#10;&#9;        translate(390,0)&#10;&#9;        rotate(0)&#10;&#9;      "><text x="0" y="0" text-anchor="middle" dominant-baseline="text-before-edge" transform="translate(0,-5.6666669845581055)"><tspan x="15" y="0" dy="0" text-anchor="start" style="font-family: Arial, sans-serif; font-size: 10px; fill: black; font-weight: bold;">Universal Music Group</tspan></text></g><g transform="&#10;&#9;        rotate(-55.20688683747878)&#10;&#9;        translate(390,0)&#10;&#9;        rotate(0)&#10;&#9;      "><text x="0" y="0" text-anchor="middle" dominant-baseline="text-before-edge" transform="translate(0,-5.6666669845581055)"><tspan x="15" y="0" dy="0" text-anchor="start" style="font-family: Arial, sans-serif; font-size: 10px; fill: black; font-weight: bold;">Polydor Records</tspan></text></g><g transform="&#10;&#9;        rotate(-32.01147806246465)&#10;&#9;        translate(390,0)&#10;&#9;        rotate(0)&#10;&#9;      "><text x="0" y="0" text-anchor="middle" dominant-baseline="text-before-edge" transform="translate(0,-5.6666669845581055)"><tspan x="15" y="0" dy="0" text-anchor="start" style="font-family: Arial, sans-serif; font-size: 10px; fill: black; font-weight: bold;">Seine Zoo Records</tspan></text></g><g transform="&#10;&#9;        rotate(-8.816069287450475)&#10;&#9;        translate(390,0)&#10;&#9;        rotate(0)&#10;&#9;      "><text x="0" y="0" text-anchor="middle" dominant-baseline="text-before-edge" transform="translate(0,-5.6666669845581055)"><tspan x="15" y="0" dy="0" text-anchor="start" style="font-family: Arial, sans-serif; font-size: 10px; fill: black; font-weight: bold;">Polydor Records</tspan></text></g><g transform="&#10;&#9;        rotate(14.379339487563655)&#10;&#9;        translate(390,0)&#10;&#9;        rotate(0)&#10;&#9;      "><text x="0" y="0" text-anchor="middle" dominant-baseline="text-before-edge" transform="translate(0,-5.6666669845581055)"><tspan x="15" y="0" dy="0" text-anchor="start" style="font-family: Arial, sans-serif; font-size: 10px; fill: black; font-weight: bold;">Warner Music France</tspan></text></g><g transform="&#10;&#9;        rotate(37.57474826257783)&#10;&#9;        translate(390,0)&#10;&#9;        rotate(0)&#10;&#9;      "><text x="0" y="0" text-anchor="middle" dominant-baseline="text-before-edge" transform="translate(0,-5.6666669845581055)"><tspan x="15" y="0" dy="0" text-anchor="start" style="font-family: Arial, sans-serif; font-size: 10px; fill: black; font-weight: bold;">Play Two</tspan></text></g><g transform="&#10;&#9;        rotate(60.77015703759196)&#10;&#9;        translate(390,0)&#10;&#9;        rotate(0)&#10;&#9;      "><text x="0" y="0" text-anchor="middle" dominant-baseline="text-before-edge" transform="translate(0,-5.6666669845581055)"><tspan x="15" y="0" dy="0" text-anchor="start" style="font-family: Arial, sans-serif; font-size: 10px; fill: black; font-weight: bold;">Capitol Music France</tspan></text></g><g transform="&#10;&#9;        rotate(83.96556581260609)&#10;&#9;        translate(390,0)&#10;&#9;        rotate(0)&#10;&#9;      "><text x="0" y="0" text-anchor="middle" dominant-baseline="text-before-edge" transform="translate(0,-5.6666669845581055)"><tspan x="15" y="0" dy="0" text-anchor="start" style="font-family: Arial, sans-serif; font-size: 10px; fill: black; font-weight: bold;">Universal Music France</tspan></text></g><g transform="&#10;&#9;        rotate(107.16097458762025)&#10;&#9;        translate(390,0)&#10;&#9;        rotate(180)&#10;&#9;      "><text x="0" y="0" text-anchor="middle" dominant-baseline="text-before-edge" transform="translate(0,-5.6666669845581055)"><tspan x="-15" y="0" dy="0" text-anchor="end" style="font-family: Arial, sans-serif; font-size: 10px; fill: black; font-weight: bold;">Sony Music</tspan></text></g><g transform="&#10;&#9;        rotate(130.35638336263435)&#10;&#9;        translate(390,0)&#10;&#9;        rotate(180)&#10;&#9;      "><text x="0" y="0" text-anchor="middle" dominant-baseline="text-before-edge" transform="translate(0,-5.6666669845581055)"><tspan x="-15" y="0" dy="0" text-anchor="end" style="font-family: Arial, sans-serif; font-size: 10px; fill: black; font-weight: bold;">Wati B</tspan></text></g><g transform="&#10;&#9;        rotate(188.81606928745043)&#10;&#9;        translate(390,0)&#10;&#9;        rotate(180)&#10;&#9;      "><text x="0" y="0" text-anchor="middle" dominant-baseline="text-before-edge" transform="translate(0,-5.6666669845581055)"><tspan x="-15" y="0" dy="0" text-anchor="end" style="font-family: Arial, sans-serif; font-size: 10px; fill: black; font-weight: bold;">Because Music</tspan></text></g><g transform="&#10;&#9;        rotate(235.2068868374787)&#10;&#9;        translate(390,0)&#10;&#9;        rotate(180)&#10;&#9;      "><text x="0" y="0" text-anchor="middle" dominant-baseline="text-before-edge" transform="translate(0,-5.6666669845581055)"><tspan x="-15" y="0" dy="0" text-anchor="end" style="font-family: Arial, sans-serif; font-size: 10px; fill: black; font-weight: bold;">DIN Records</tspan></text></g><g transform="&#10;&#9;        rotate(258.40229561249294)&#10;&#9;        translate(390,0)&#10;&#9;        rotate(180)&#10;&#9;      "><text x="0" y="0" text-anchor="middle" dominant-baseline="text-before-edge" transform="translate(0,-5.6666669845581055)"><tspan x="-15" y="0" dy="0" text-anchor="end" style="font-family: Arial, sans-serif; font-size: 10px; fill: black; font-weight: bold;">Def Jam Recordings</tspan></text></g></g></g><g id="legend" transform="translate(1000,10)"><g transform="translate(5,0)"><g class="legendSize" transform="translate(0,0)"><g class="legendCells" transform="translate(10,16)"><g class="cell" transform="translate(0, 0)"><circle class="swatch" r="0" fill="none" stroke="#ccc"/><text class="label" transform="translate( 15,&#10;          5)" font-family="&quot;Arial&quot;, sans-serif" font-size="10px"><tspan x="0" dy="0em">0.0</tspan></text></g><g class="cell" transform="translate(0, 26)"><circle class="swatch" r="10" fill="none" stroke="#ccc"/><text class="label" transform="translate( 15,&#10;          5)" font-family="&quot;Arial&quot;, sans-serif" font-size="10px"><tspan x="0" dy="0em">1.0</tspan></text></g></g><text class="legendTitle" font-family="&quot;Arial&quot;, sans-serif" font-size="12px" font-weight="bold"><tspan x="0" dy="0em">Number of records</tspan></text></g><g class="legendColor" transform="translate(0,84.66667175292969)"><g class="legendCells" transform="translate(0,16)"><g class="cell" transform="translate(0, 0)"><rect class="swatch" height="15" width="15" style="fill: rgb(31, 119, 180);"/><text class="label" transform="translate( 20, 12.5)" font-family="&quot;Arial&quot;, sans-serif" font-size="10px"><tspan x="0" dy="0em"/></text></g><g class="cell" transform="translate(0, 20)"><rect class="swatch" height="15" width="15" style="fill: rgb(255, 127, 14);"/><text class="label" transform="translate( 20, 12.5)" font-family="&quot;Arial&quot;, sans-serif" font-size="10px"><tspan x="0" dy="0em">Because Music</tspan></text></g><g class="cell" transform="translate(0, 41)"><rect class="swatch" height="15" width="15" style="fill: rgb(44, 160, 44);"/><text class="label" transform="translate( 20, 12.5)" font-family="&quot;Arial&quot;, sans-serif" font-size="10px"><tspan x="0" dy="0em">Capitol Music France</tspan></text></g><g class="cell" transform="translate(0, 62)"><rect class="swatch" height="15" width="15" style="fill: rgb(214, 39, 40);"/><text class="label" transform="translate( 20, 12.5)" font-family="&quot;Arial&quot;, sans-serif" font-size="10px"><tspan x="0" dy="0em">DIN Records</tspan></text></g><g class="cell" transform="translate(0, 83)"><rect class="swatch" height="15" width="15" style="fill: rgb(148, 103, 189);"/><text class="label" transform="translate( 20, 12.5)" font-family="&quot;Arial&quot;, sans-serif" font-size="10px"><tspan x="0" dy="0em">Def Jam Recordings</tspan></text></g><g class="cell" transform="translate(0, 104)"><rect class="swatch" height="15" width="15" style="fill: rgb(140, 86, 75);"/><text class="label" transform="translate( 20, 12.5)" font-family="&quot;Arial&quot;, sans-serif" font-size="10px"><tspan x="0" dy="0em">Play Two</tspan></text></g><g class="cell" transform="translate(0, 125)"><rect class="swatch" height="15" width="15" style="fill: rgb(227, 119, 194);"/><text class="label" transform="translate( 20, 12.5)" font-family="&quot;Arial&quot;, sans-serif" font-size="10px"><tspan x="0" dy="0em">Polydor Records</tspan></text></g><g class="cell" transform="translate(0, 146)"><rect class="swatch" height="15" width="15" style="fill: rgb(127, 127, 127);"/><text class="label" transform="translate( 20, 12.5)" font-family="&quot;Arial&quot;, sans-serif" font-size="10px"><tspan x="0" dy="0em">Seine Zoo Records</tspan></text></g><g class="cell" transform="translate(0, 167)"><rect class="swatch" height="15" width="15" style="fill: rgb(188, 189, 34);"/><text class="label" transform="translate( 20, 12.5)" font-family="&quot;Arial&quot;, sans-serif" font-size="10px"><tspan x="0" dy="0em">Sony Music</tspan></text></g><g class="cell" transform="translate(0, 188)"><rect class="swatch" height="15" width="15" style="fill: rgb(23, 190, 207);"/><text class="label" transform="translate( 20, 12.5)" font-family="&quot;Arial&quot;, sans-serif" font-size="10px"><tspan x="0" dy="0em">Universal Music France</tspan></text></g><g class="cell" transform="translate(0, 209)"><rect class="swatch" height="15" width="15" style="fill: rgb(204, 204, 204);"/><text class="label" transform="translate( 20, 12.5)" font-family="&quot;Arial&quot;, sans-serif" font-size="10px"><tspan x="0" dy="0em">Universal Music Group</tspan></text></g><g class="cell" transform="translate(0, 230)"><rect class="swatch" height="15" width="15" style="fill: rgb(204, 204, 204);"/><text class="label" transform="translate( 20, 12.5)" font-family="&quot;Arial&quot;, sans-serif" font-size="10px"><tspan x="0" dy="0em">Warner Music France</tspan></text></g><g class="cell" transform="translate(0, 251)"><rect class="swatch" height="15" width="15" style="fill: rgb(204, 204, 204);"/><text class="label" transform="translate( 20, 12.5)" font-family="&quot;Arial&quot;, sans-serif" font-size="10px"><tspan x="0" dy="0em">Wati B</tspan></text></g></g><text class="legendTitle" font-family="&quot;Arial&quot;, sans-serif" font-size="12px" font-weight="bold"><tspan x="0" dy="0em">record_labelLabel</tspan></text></g></g></g></svg>